<?xml version="1.0" encoding="UTF-8"?><svg id="aerialperf" xmlns="http://www.w3.org/2000/svg" width="25.62" height="41.33" viewBox="0 0 25.62 41.33"><defs><style>.cls-1{fill:#fff;}.cls-2{fill:#91ff36;}</style></defs><rect class="cls-1" x="6.1" y="2.84" width="4.81" height="11.14" transform="translate(-2.58 3.91) rotate(-22.61)"/><path class="cls-2" d="M8.04,3.65l3.51,8.44-2.59,1.08-3.51-8.44,2.59-1.08M9.12,1.03l-1.85.77-2.59,1.08-1.85.77.77,1.85,3.51,8.44.77,1.85,1.85-.77,2.59-1.08,1.85-.77-.77-1.85-3.51-8.44-.77-1.85h0Z"/><path class="cls-2" d="M13.06,20.24c4.78,0,8.65,3.87,8.65,8.65s-3.87,8.65-8.65,8.65-8.65-3.87-8.65-8.65,3.87-8.65,8.65-8.65M13.06,17.24c-6.43,0-11.65,5.23-11.65,11.65s5.23,11.65,11.65,11.65,11.65-5.23,11.65-11.65-5.23-11.65-11.65-11.65h0Z"/><path class="cls-1" d="M13.21,22.64c3.46,0,6.26,2.8,6.26,6.26s-2.8,6.26-6.26,6.26-6.26-2.8-6.26-6.26,2.8-6.26,6.26-6.26M13.21,19.64c-5.1,0-9.26,4.15-9.26,9.26s4.15,9.26,9.26,9.26,9.26-4.15,9.26-9.26-4.15-9.26-9.26-9.26h0Z"/><rect class="cls-1" x="6.92" y="8.23" width="15.9" height="4.51" transform="translate(1.34 22.65) rotate(-77.12)"/><path class="cls-2" d="M15.2,3.43l2.44.56-3.1,13.55-2.44-.56,3.1-13.55M13.7,1.03l-.45,1.95-3.1,13.55-.45,1.95,1.95.45,2.44.56,1.95.45.45-1.95,3.1-13.55.45-1.95-1.95-.45-2.44-.56-1.95-.45h0Z"/></svg>