<?xml version="1.0" encoding="UTF-8"?><svg id="bonfire" xmlns="http://www.w3.org/2000/svg" width="38.76" height="32.1" viewBox="0 0 38.76 32.1"><defs><style>.cls-1{fill:#fff;}.cls-2{fill:#91ff36;}</style></defs><polygon class="cls-1" points="12.42 27.29 15.22 20.43 4.8 23.16 2.95 17.12 12.72 14.85 3.02 7.63 6.85 2.6 18.26 11.12 22.31 4.68 27.71 7.52 25.1 11.66 33.3 9.48 35.69 15.18 26.77 17.73 36.34 24.67 32.9 29.58 21.68 21.24 18.21 29.8 12.42 27.29"/><path class="cls-2" d="M7.05,3.99l11.47,8.58,4.14-6.57,3.62,1.9-3.38,5.38,9.81-2.62,1.62,3.86-9.81,2.81,10.43,7.57-2.28,3.26-11.43-8.5-3.57,8.81-3.95-1.71,3.19-7.81-11.43,3-1.25-4.1,10.82-2.52L4.43,7.43l2.62-3.44M6.66,1.2l-1.2,1.58-2.62,3.44-1.23,1.61,1.62,1.21,7.16,5.33-6.62,1.54-2.09.49.63,2.05,1.25,4.1.56,1.84,1.86-.49,7.55-1.98-1.68,4.1-.74,1.81,1.8.78,3.95,1.71,1.88.82.77-1.9,2.6-6.41,9.36,6.96,1.65,1.23,1.18-1.69,2.28-3.26,1.13-1.61-1.59-1.15-7.11-5.16,5.86-1.68,2.17-.62-.87-2.08-1.62-3.86-.68-1.61-1.68.45-4.89,1.31.67-1.07,1.15-1.83-1.91-1.01-3.62-1.9-1.64-.86-.99,1.56-2.99,4.74L8.25,2.39l-1.59-1.19h0Z"/></svg>