<?xml version="1.0" encoding="UTF-8"?><svg id="dreamzone" xmlns="http://www.w3.org/2000/svg" width="120.25" height="74.54" viewBox="0 0 120.25 74.54"><defs><style>.cls-1{fill:#fff;}.cls-2{fill:#91ff36;}</style></defs><polygon class="cls-1" points="42.15 22.54 34.61 27.74 37.4 18.86 30.35 13.33 39.16 13.17 42.04 4.41 45.17 13.31 53.86 13.2 47.17 18.92 49.91 27.77 42.15 22.54"/><path class="cls-2" d="M42.07,7.52l2.39,6.81,6.64-.09-5.1,4.36,2.1,6.76-5.96-4.02-5.71,3.94,2.12-6.77-5.38-4.21,6.7-.12,2.19-6.64M42.01,1.31l-1.84,5.58-1.75,5.3-5.28.1-5.62.1,4.43,3.47,4.29,3.36-1.71,5.45-1.74,5.54,4.78-3.3,4.59-3.17,4.83,3.26,4.71,3.18-1.68-5.43-1.71-5.51,4.1-3.5,4.2-3.59-5.53.07-5.21.07-1.92-5.45-1.95-5.54h0Z"/><polygon class="cls-1" points="16.02 61.51 8.48 66.71 11.27 57.82 4.22 52.3 13.02 52.14 15.91 43.38 19.04 52.28 27.73 52.16 21.03 57.89 23.78 66.74 16.02 61.51"/><path class="cls-2" d="M15.94,46.48l2.39,6.81,6.64-.09-5.1,4.36,2.1,6.76-5.96-4.02-5.71,3.94,2.12-6.77-5.38-4.21,6.7-.12,2.19-6.64M15.88,40.28l-1.84,5.58-1.75,5.3-5.28.1-5.62.1,4.43,3.47,4.29,3.36-1.71,5.45-1.74,5.54,4.78-3.3,4.59-3.17,4.83,3.26,4.71,3.18-1.68-5.43-1.71-5.51,4.1-3.5,4.2-3.59-5.53.07-5.21.07-1.92-5.45-1.95-5.54h0Z"/><polygon class="cls-1" points="92.5 21.79 84.96 26.99 87.74 18.11 80.7 12.59 89.5 12.42 92.39 3.67 95.52 12.57 104.21 12.45 97.51 18.18 100.25 27.02 92.5 21.79"/><path class="cls-2" d="M92.42,6.77l2.39,6.81,6.64-.09-5.1,4.36,2.1,6.76-5.96-4.02-5.71,3.94,2.12-6.77-5.38-4.21,6.7-.12,2.19-6.64M92.36.57l-1.84,5.58-1.75,5.3-5.28.1-5.62.1,4.43,3.47,4.29,3.36-1.71,5.45-1.74,5.54,4.78-3.3,4.59-3.17,4.83,3.26,4.71,3.18-1.68-5.43-1.71-5.51,4.1-3.5,4.2-3.59-5.53.07-5.21.07-1.92-5.45-1.95-5.54h0Z"/><polygon class="cls-1" points="104.21 64.74 96.67 69.95 99.46 61.06 92.41 55.54 101.22 55.38 104.1 46.62 107.23 55.52 115.92 55.4 109.23 61.13 111.97 69.98 104.21 64.74"/><path class="cls-2" d="M104.13,49.72l2.39,6.81,6.64-.09-5.1,4.36,2.1,6.76-5.96-4.02-5.71,3.94,2.12-6.77-5.38-4.21,6.7-.12,2.19-6.64M104.07,43.52l-1.84,5.58-1.75,5.3-5.28.1-5.62.1,4.43,3.47,4.29,3.36-1.71,5.45-1.74,5.54,4.78-3.3,4.59-3.17,4.83,3.26,4.71,3.18-1.68-5.43-1.71-5.51,4.1-3.5,4.2-3.59-5.53.07-5.21.07-1.92-5.45-1.95-5.54h0Z"/><polygon class="cls-1" points="26.54 65.71 22.18 62.3 27.63 62.2 29.43 56.76 31.36 62.25 36.73 62.18 32.58 65.73 34.27 71.2 29.5 67.98 24.81 71.21 26.54 65.71"/><path class="cls-2" d="M29.46,59.86l1.2,3.4,3.32-.04-2.55,2.18,1.05,3.38-2.98-2.01-2.86,1.97,1.06-3.39-2.69-2.11,3.35-.06,1.1-3.32M29.39,53.66l-1.84,5.58-.65,1.97-1.93.04-5.62.1,4.43,3.47,1.6,1.25-.65,2.07-1.74,5.54,4.78-3.3,1.73-1.2,1.85,1.25,4.71,3.18-1.68-5.43-.66-2.12,1.55-1.32,4.2-3.59-5.53.07-1.89.02-.72-2.05-1.95-5.54h0Z"/><polygon class="cls-1" points="58.57 58.85 54.21 55.43 59.66 55.33 61.46 49.9 63.39 55.39 68.75 55.32 64.61 58.87 66.3 64.33 61.53 61.12 56.84 64.35 58.57 58.85"/><path class="cls-2" d="M61.49,53l1.2,3.4,3.32-.04-2.55,2.18,1.05,3.38-2.98-2.01-2.86,1.97,1.06-3.39-2.69-2.11,3.35-.06,1.1-3.32M61.43,46.8l-1.84,5.58-.65,1.97-1.93.04-5.62.1,4.43,3.47,1.6,1.25-.65,2.07-1.74,5.54,4.78-3.3,1.73-1.2,1.85,1.25,4.71,3.18-1.68-5.43-.66-2.12,1.55-1.32,4.2-3.59-5.53.07-1.89.02-.72-2.05-1.95-5.54h0Z"/><polygon class="cls-1" points="75.54 23.74 71.18 20.33 76.63 20.23 78.43 14.79 80.36 20.29 85.73 20.22 81.58 23.76 83.27 29.23 78.5 26.01 73.81 29.24 75.54 23.74"/><path class="cls-2" d="M78.46,17.89l1.2,3.4,3.32-.04-2.55,2.18,1.05,3.38-2.98-2.01-2.86,1.97,1.06-3.39-2.69-2.11,3.35-.06,1.1-3.32M78.39,11.69l-1.84,5.58-.65,1.97-1.93.04-5.62.1,4.43,3.47,1.6,1.25-.65,2.07-1.74,5.54,4.78-3.3,1.73-1.2,1.85,1.25,4.71,3.18-1.68-5.43-.66-2.12,1.55-1.32,4.2-3.59-5.53.07-1.89.02-.72-2.05-1.95-5.54h0Z"/></svg>