<?xml version="1.0" encoding="UTF-8"?><svg id="foodcourt" xmlns="http://www.w3.org/2000/svg" width="68.48" height="24" viewBox="0 0 68.48 24"><defs><style>.cls-1{fill:#fff;}.cls-2{fill:#91ff36;}</style></defs><path class="cls-1" d="M4.06,20.31l-.41-.51c-1.42-1.75-.64-3.67.23-4.54l.44-.44h.32c-.44-.14-.63-.26-.78-.36-1.05-.69-1.34-1.56-1.39-2.17-.13-1.49,1.02-2.64,1.25-2.85l.1-.09s-.04-.02-.05-.03c-.72-.4-1.21-1.03-1.35-1.78-.28-1.41.71-2.71.91-2.96l.41-.5.64-.05c6.63-.52,14.12-1.17,14.96-1.36.3-.07.61-.1.93-.1,1.59,0,2.93.85,3.08.94l.22.14,3.71,4.93c8.64-.92,15.95-1.38,21.74-1.38,8.6,0,13.86,1.03,15.65,3.05.56.64.68,1.23.7,1.61.07.74-.17,1.44-.69,2.03-1.24,1.42-4.61,3.05-19.79,3.05h0c-7.66,0-15.35-.44-17.83-.59l-2.59,3.5c-.39,1-1.65,1.6-3.55,1.66h-.08s-16.79-1.19-16.79-1.19Z"/><path class="cls-2" d="M20.27,4.07c1.19,0,2.26.7,2.26.7l4.06,5.4c9.85-1.07,17.1-1.46,22.43-1.46,15.26,0,14.84,3.24,14.84,3.24.39,2.81-9.33,3.5-18.97,3.5s-18.55-.64-18.55-.64l-3.24,4.38c-.06.76-2.22.83-2.22.83l-16.06-1.14c-1.08-1.33.13-2.54.13-2.54h14.54c.89-1.08-.06-2.22-.06-2.22,0,0-.89.01-2.23.01-3.81,0-11.28-.1-12.5-.9-1.65-1.08.06-2.67.06-2.67l14.79-.25c.76-.89.13-1.84.13-1.84,0,0-2.84.07-6.08.07-3.89,0-8.33-.09-9.1-.51-1.4-.76,0-2.48,0-2.48,0,0,13.78-1.08,15.17-1.4.2-.05.4-.06.6-.06M20.27,1.07h0c-.43,0-.86.05-1.26.14-.94.18-8.24.82-14.74,1.33l-1.28.1-.81.99c-.39.47-1.61,2.17-1.22,4.19.12.63.39,1.21.78,1.71-.45.72-.85,1.71-.75,2.89.08.97.5,1.86,1.19,2.58-1.03,1.59-1.23,3.84.31,5.75l.82,1.01,1.3.09,16.06,1.14h.15s.15,0,.15,0c3.03-.09,4.28-1.32,4.78-2.36l2.03-2.75c3.1.18,10.12.55,17.11.55,15.66,0,19.31-1.71,20.92-3.56.77-.88,1.14-1.97,1.05-3.08-.03-.88-.4-1.78-1.07-2.54-1.34-1.53-4.55-3.56-16.77-3.56-5.65,0-12.73.44-21.05,1.3l-3.04-4.04-.32-.42-.44-.29c-.3-.2-1.92-1.19-3.9-1.19h0Z"/></svg>