<?xml version="1.0" encoding="UTF-8"?><svg id="makeupsalon" xmlns="http://www.w3.org/2000/svg" width="46.95" height="46.86" viewBox="0 0 46.95 46.86"><defs><style>.cls-1{fill:#91ff36;stroke:#91ff36;stroke-miterlimit:10;stroke-width:4px;}.cls-2{fill:#fff;}</style></defs><path class="cls-1" d="M42.64,12.05s-.9-8.14-9.19-8.63-13.22,4.79-13.22,4.79c0,0-9.07,8.49-5.91,17.18,0,0,1.7,2.37-9,8.63,0,0-4.4,4.49,0,7.67,5.49,3.97,9-4.24,9-4.24,0,0,2.95-7.26,4.08-6.78,1.13.48,5.19,1.35,11.26-.33s14.24-9.86,12.98-18.29ZM35.35,20.62s-4.25,5.78-9.4,5.33c0,0-6.1.44-6.67-5.27-.57-5.71,5.52-10.22,5.52-10.22,0,0,5.14-4.19,9.84-.95,5.57,3.84.7,11.11.7,11.11Z"/><path class="cls-2" d="M42.64,12.05s-.9-8.14-9.19-8.63-13.22,4.79-13.22,4.79c0,0-9.07,8.49-5.91,17.18,0,0,1.7,2.37-9,8.63,0,0-4.4,4.49,0,7.67,5.49,3.97,9-4.24,9-4.24,0,0,2.95-7.26,4.08-6.78,1.13.48,5.19,1.35,11.26-.33s14.24-9.86,12.98-18.29ZM35.35,20.62s-4.25,5.78-9.4,5.33c0,0-6.1.44-6.67-5.27-.57-5.71,5.52-10.22,5.52-10.22,0,0,5.14-4.19,9.84-.95,5.57,3.84.7,11.11.7,11.11Z"/></svg>