<svg width="58" height="51" viewBox="0 0 58 51" fill="none" xmlns="http://www.w3.org/2000/svg">
<path d="M29 19.4401C27.6579 19.4406 26.346 19.7953 25.2303 20.4594C24.1146 21.1235 23.2451 22.0671 22.7318 23.1711C22.2186 24.275 22.0845 25.4896 22.3467 26.6613C22.6088 27.8331 23.2554 28.9093 24.2046 29.754C25.1538 30.5986 26.3631 31.1738 27.6795 31.4067C28.9959 31.6396 30.3603 31.5198 31.6002 31.0625C32.8402 30.6052 33.8999 29.8309 34.6455 28.8375C35.3911 27.844 35.7891 26.6761 35.7891 25.4814C35.7878 23.8791 35.072 22.3428 33.799 21.2101C32.526 20.0773 30.7999 19.4407 29 19.4401ZM44.8671 14.7965C44.5216 14.0171 43.9999 13.3092 43.3343 12.7167C42.6688 12.1243 41.8736 11.6598 40.998 11.3523C38.3261 10.4134 31.9645 10.624 29 10.624C26.0355 10.624 19.6802 10.4054 17.0007 11.3523C16.1252 11.6598 15.3299 12.1243 14.6644 12.7167C13.9988 13.3092 13.4771 14.0171 13.1316 14.7965C12.0781 17.1749 12.3135 22.8436 12.3135 25.4802C12.3135 28.1169 12.0781 33.7787 13.1367 36.1651C13.4822 36.9445 14.0039 37.6524 14.6695 38.2449C15.335 38.8373 16.1303 39.3018 17.0058 39.6093C19.6777 40.5482 26.0393 40.3376 29.0051 40.3376C31.9709 40.3376 38.3236 40.5561 41.0031 39.6093C41.8786 39.3018 42.6739 38.8373 43.3394 38.2449C44.005 37.6524 44.5267 36.9445 44.8722 36.1651C45.9346 33.7867 45.6903 28.118 45.6903 25.4814C45.6903 22.8447 45.9346 17.184 44.8722 14.7976L44.8671 14.7965ZM29 34.7686C26.9365 34.7686 24.9194 34.2239 23.2037 33.2034C21.488 32.1829 20.1508 30.7325 19.3611 29.0354C18.5715 27.3384 18.3649 25.4711 18.7674 23.6695C19.17 21.868 20.1636 20.2131 21.6227 18.9143C23.0818 17.6154 24.9408 16.7309 26.9646 16.3726C28.9884 16.0142 31.0862 16.1981 32.9925 16.9011C34.8989 17.604 36.5284 18.7944 37.6748 20.3216C38.8212 21.8489 39.433 23.6445 39.433 25.4814C39.4347 26.7014 39.166 27.9097 38.6423 29.0372C38.1186 30.1647 37.3501 31.1891 36.381 32.0518C35.4119 32.9145 34.2611 33.5985 32.9945 34.0647C31.728 34.5309 30.3706 34.7701 29 34.7686ZM39.8631 17.9723C39.3814 17.9725 38.9104 17.8456 38.5098 17.6075C38.1092 17.3694 37.7968 17.031 37.6123 16.6349C37.4278 16.2388 37.3794 15.8029 37.4732 15.3823C37.567 14.9617 37.7989 14.5753 38.1394 14.2721C38.4799 13.9688 38.9138 13.7622 39.3863 13.6785C39.8587 13.5947 40.3484 13.6376 40.7934 13.8016C41.2385 13.9657 41.6189 14.2435 41.8865 14.6C42.1542 14.9566 42.297 15.3757 42.297 15.8045C42.2984 16.0893 42.2365 16.3714 42.1151 16.6349C41.9937 16.8983 41.815 17.1378 41.5893 17.3396C41.3637 17.5414 41.0955 17.7016 40.8001 17.811C40.5048 17.9203 40.1881 17.9767 39.8682 17.9768L39.8631 17.9723ZM51.3929 0.111328H6.60714C4.98743 0.111328 3.43405 0.684094 2.28874 1.70362C1.14343 2.72315 0.5 4.10593 0.5 5.54776L0.5 45.415C0.5 46.8568 1.14343 48.2396 2.28874 49.2591C3.43405 50.2786 4.98743 50.8514 6.60714 50.8514H51.3929C53.0126 50.8514 54.566 50.2786 55.7113 49.2591C56.8566 48.2396 57.5 46.8568 57.5 45.415V5.54776C57.5 4.10593 56.8566 2.72315 55.7113 1.70362C54.566 0.684094 53.0126 0.111328 51.3929 0.111328ZM49.2146 32.9565C49.0505 35.8593 48.3062 38.4314 45.9257 40.5448C43.5452 42.6582 40.6583 43.3344 37.4011 43.4726C34.0409 43.6413 23.9667 43.6413 20.6065 43.4726C17.3455 43.3265 14.4663 42.6628 12.0819 40.5448C9.69761 38.4269 8.94821 35.8536 8.79299 32.9565C8.60342 29.9642 8.60342 20.9952 8.79299 18.0063C8.95712 15.1034 9.69252 12.5313 12.0819 10.4179C14.4714 8.30449 17.3583 7.63626 20.6065 7.49809C23.9667 7.32933 34.0409 7.32933 37.4011 7.49809C40.6621 7.64419 43.5503 8.30789 45.9257 10.4258C48.3011 12.5438 49.0594 15.117 49.2146 18.0199C49.4042 21.0008 49.4042 29.9619 49.2146 32.9565Z" fill="#91FF36"/>
</svg>
