<svg width="294" height="137" viewBox="0 0 294 137" fill="none" xmlns="http://www.w3.org/2000/svg">
<g clip-path="url(#clip0_321_31)">
<path d="M1.78999 19.55L21.79 28.55" stroke="#91FF36" stroke-width="3" stroke-miterlimit="10"/>
<path d="M44.79 38.55L128.79 75.5501" stroke="#91FF36" stroke-width="3" stroke-miterlimit="10"/>
<path d="M89.79 39.55L133.79 74.5501" stroke="#91FF36" stroke-width="3" stroke-miterlimit="10"/>
<path d="M116.79 18.55L142.79 73.5501" stroke="#91FF36" stroke-width="3" stroke-miterlimit="10"/>
<path d="M175.79 19.55L150.79 75.5501" stroke="#91FF36" stroke-width="3" stroke-miterlimit="10"/>
<path d="M157.93 74.44L202.65 41.67" stroke="#91FF36" stroke-width="3" stroke-miterlimit="10"/>
<path d="M268.79 28.55L291.79 17.55" stroke="#91FF36" stroke-width="3" stroke-miterlimit="10"/>
<path d="M223.79 25.55L234.79 17.55" stroke="#91FF36" stroke-width="3" stroke-miterlimit="10"/>
<path d="M68.79 26.55L56.79 19.55" stroke="#91FF36" stroke-width="3" stroke-miterlimit="10"/>
<path d="M128.79 72.7301V88.5501L164.79 86.5501L165.79 73.5501L246.79 38.55" stroke="#91FF36" stroke-width="3" stroke-miterlimit="10"/>
<path d="M129.79 71.37L165.79 73.55" stroke="#91FF36" stroke-width="3" stroke-miterlimit="10"/>
<path d="M46.79 34.05C46.79 40.95 41.69 44.55 34.79 44.55C27.89 44.55 20.68 40.86 21.79 34.05C23.16 25.66 28.4 20.45 34.29 21.55C41.08 22.82 46.79 27.15 46.79 34.05Z" stroke="#91FF36" stroke-width="3" stroke-miterlimit="10"/>
<path d="M90.79 33.05C89.24 39.21 85.64 44.55 79.29 44.55C72.94 44.55 67.79 39.4 67.79 33.05C67.79 26.7 73.01 20.62 79.29 21.55C86.39 22.61 91.97 28.36 90.79 33.05Z" stroke="#91FF36" stroke-width="3" stroke-miterlimit="10"/>
<path d="M156.79 32.05C156.79 38.4 151.64 43.55 145.29 43.55C138.94 43.55 134.79 38.55 133.79 32.55C132.79 26.55 138.94 20.55 145.29 20.55C151.64 20.55 156.79 25.7 156.79 32.05Z" stroke="#91FF36" stroke-width="3" stroke-miterlimit="10"/>
<path d="M224.79 32.05C224.79 38.4 219.46 42.05 213.29 43.55C204.08 45.79 198.67 40.85 201.79 32.05C203.91 26.06 206.94 20.55 213.29 20.55C219.64 20.55 224.79 25.7 224.79 32.05Z" stroke="#91FF36" stroke-width="3" stroke-miterlimit="10"/>
<path d="M269.79 32.05C271.96 38.02 264.64 43.55 258.29 43.55C251.94 43.55 244.79 38.55 246.79 32.05C248.66 25.98 251.94 20.55 258.29 20.55C264.64 20.55 267.79 26.55 269.79 32.05Z" stroke="#91FF36" stroke-width="3" stroke-miterlimit="10"/>
<path d="M139.58 89.4201C140.25 90.4101 140.73 91.4501 141 92.6201C141.27 93.7901 141.18 95.0301 142.44 95.6701C143.52 96.2101 145.08 95.9601 146.25 95.9601C147.57 95.9601 148.89 95.9801 150.21 95.9901C151.53 96.0001 152.85 96.0101 154.17 96.0201C155.41 96.0201 156.71 96.1001 157.61 95.0901C158.35 94.2701 158.44 93.1101 158.24 92.0701C158.14 91.5301 157.92 91.0501 157.7 90.5501C157.56 90.2201 157.23 89.5401 157.33 89.3301C157.67 88.6001 157.54 87.7101 156.79 87.2801C156.14 86.9001 155.08 87.0801 154.74 87.8201C154.23 88.9201 154.26 89.9701 154.69 91.0901C154.85 91.5001 155.06 91.9001 155.21 92.3101C155.29 92.5401 155.3 92.9101 155.36 93.0401C155.32 92.9601 155.36 93.3001 155.36 93.1501C155.36 92.9101 155.61 93.1501 155.36 93.0401C155.2 92.9701 154.65 93.0401 154.47 93.0401C154.17 93.0401 153.86 93.0401 153.56 93.0401C152.44 93.0401 151.32 93.0201 150.21 93.0201C149.1 93.0201 147.97 93.0001 146.86 93.0001C146.3 93.0001 145.74 93.0001 145.18 92.9901C145.01 92.9901 143.72 92.8401 143.6 92.9701C144.27 92.2001 144.14 94.1801 144.11 93.1801C144.1 92.8901 144.03 92.5401 143.97 92.2501C143.89 91.8101 143.78 91.3701 143.64 90.9401C143.29 89.8701 142.8 88.8601 142.17 87.9301C141.09 86.3401 138.49 87.8401 139.58 89.4401V89.4201Z" fill="#91FF36"/>
<path d="M141.49 93.72C137.35 99.84 133.4 107.19 137.39 114.39C139.26 117.78 141.43 120.92 143.05 124.45C144.67 127.98 145.96 131.85 146.88 135.72C147.13 136.77 148.65 137.24 149.39 136.38C155.03 129.8 160.16 121.88 162.37 113.42C164.33 105.91 162.97 96.99 155.99 92.53C154.36 91.49 152.85 94.08 154.48 95.12C160.76 99.13 161.1 107.47 159.12 113.92C156.82 121.38 152.33 128.38 147.28 134.27L149.79 134.93C148.07 127.73 145.1 120.98 141.13 114.75C140.15 113.21 139.2 111.66 138.83 109.85C138.5 108.21 138.67 106.52 139.09 104.92C140.02 101.39 142.07 98.24 144.1 95.24C145.18 93.64 142.59 92.13 141.51 93.73L141.49 93.72Z" fill="#91FF36"/>
<path d="M137.78 111.46C145.14 111.58 152.49 111.55 159.85 111.36C161.78 111.31 161.78 108.31 159.85 108.36C152.5 108.55 145.14 108.58 137.78 108.46C135.85 108.43 135.85 111.43 137.78 111.46Z" fill="#91FF36"/>
<path d="M130.09 76.54C141.66 73.58 153.6 77.23 165.31 76.15C167.22 75.97 167.23 72.97 165.31 73.15C153.3 74.26 141.17 70.61 129.29 73.65C127.42 74.13 128.21 77.02 130.09 76.54Z" fill="#91FF36"/>
<path d="M130.5 76.02L129.99 81.93C129.87 83.36 129.23 85.56 130 86.87C130.83 88.29 132.74 87.93 134.12 87.9C136.09 87.86 138.05 87.82 140.02 87.76C147.72 87.55 155.41 87.22 163.1 86.78C165.02 86.67 165.03 83.67 163.1 83.78C156.31 84.17 149.52 84.47 142.72 84.68C141.08 84.73 139.44 84.78 137.81 84.81C136.91 84.83 136.01 84.85 135.11 84.87C134.34 84.89 133.41 84.77 132.65 84.92H132.16C132.56 85.5 132.75 85.57 132.72 85.12C132.88 84.86 132.8 84.22 132.83 83.89L133.04 81.43L133.5 76.01C133.66 74.09 130.66 74.1 130.5 76.01V76.02Z" fill="#91FF36"/>
<path d="M128.78 76.1C128.8 76.22 128.82 76.3299 128.84 76.4499L128.79 76.05C128.88 76.74 128.88 77.4399 128.79 78.1299L128.84 77.73C128.81 77.97 128.76 78.2 128.71 78.43C128.62 78.82 128.66 79.2399 128.86 79.5899C129.04 79.8999 129.4 80.2 129.76 80.28C130.14 80.37 130.57 80.3499 130.92 80.1299C131.24 79.9199 131.52 79.62 131.61 79.23C131.76 78.59 131.84 77.9299 131.86 77.2699C131.88 76.6099 131.8 75.95 131.68 75.3C131.62 74.95 131.29 74.58 130.99 74.4C130.67 74.21 130.19 74.13 129.83 74.25C129.47 74.37 129.12 74.59 128.93 74.94C128.73 75.31 128.7 75.68 128.78 76.1Z" fill="#91FF36"/>
<path d="M165.04 74.43C164.6 76.67 164.33 78.94 164.3 81.22C164.28 82.21 164.35 83.19 164.32 84.18C164.3 84.86 164.27 85.72 163.84 86.28C163.26 87.03 163.23 88.1 164.14 88.64C164.92 89.1 165.81 89.09 166.59 88.65C167.24 88.29 167.5 87.44 167.2 86.78C166.89 86.07 166.18 85.76 165.43 85.91C162.55 86.48 159.63 86.69 156.7 86.58C154.77 86.51 154.77 89.51 156.7 89.58C159.9 89.7 163.09 89.42 166.23 88.8L165.07 86.06C165.26 85.98 165.45 85.98 165.64 86.05L165.94 88.41C167.37 86.56 167.31 84.47 167.28 82.24C167.25 79.89 167.46 77.55 167.91 75.24C168.07 74.45 167.68 73.62 166.86 73.39C166.12 73.19 165.17 73.64 165.01 74.44L165.04 74.43Z" fill="#91FF36"/>
<path d="M168.35 87.08C168.13 85.94 167.9 84.8 167.7 83.66C167.51 82.64 167.82 81.81 168.03 80.82C168.52 78.51 168.53 76.18 168.12 73.85C167.98 73.05 167 72.6 166.27 72.8C165.43 73.03 165.08 73.84 165.22 74.65C165.59 76.76 165.43 78.89 164.9 80.95C164.59 82.15 164.58 83.24 164.8 84.46C165 85.6 165.24 86.74 165.45 87.88C165.6 88.68 166.56 89.13 167.3 88.93C168.13 88.7 168.5 87.88 168.35 87.08Z" fill="#91FF36"/>
<path d="M1.78999 19.55L4.78999 2.55005H25.38L29.79 16.55L33.73 2.55005H55.5L60.79 17.55L63.84 2.55005H85.01L88.79 15.55L93.06 2.55005H113.63L116.79 16.55L121.98 2.55005L141.79 1.55005L146.79 15.55L150.9 1.55005H170.87L175.79 16.55L179.52 1.55005H199.79L204.79 14.55L208.74 1.55005H228.41L232.79 14.55L238.25 1.55005H258.53L262.79 14.55L266.87 1.55005H286.85L291.79 17.55L1.78999 19.55Z" stroke="#91FF36" stroke-width="3" stroke-miterlimit="10"/>
</g>
<defs>
<clipPath id="clip0_321_31">
<rect width="293.82" height="136.83" fill="white"/>
</clipPath>
</defs>
</svg>
