<svg width="36" height="35" viewBox="0 0 36 35" fill="none" xmlns="http://www.w3.org/2000/svg">
<path d="M17.8916 13.2747C18.3253 13.2747 18.5422 12.8352 18.5422 12.1758V9.0989C18.5422 8.43956 18.3253 8 17.8916 8C17.4578 8 17.241 8.43956 17.241 9.0989V12.1758C17.241 12.8352 17.4578 13.2747 17.8916 13.2747ZM16.1566 26.2418C15.9398 26.6813 15.506 26.9011 15.2892 26.9011C15.0723 26.9011 15.0723 26.9011 15.0723 26.6813V20.7473H13.7711V26.4615C13.7711 26.9011 13.7711 27.3407 13.988 27.5604C14.2048 28 14.4217 28 14.8554 28C15.2892 28 15.7229 27.7802 16.3735 27.1209V28H17.6747V20.7473H16.1566V26.2418ZM9 19.6484H10.5181V28H12.0361V19.6484H13.5542V18.1099H9V19.6484ZM21.1446 20.5275C20.7108 20.5275 20.2771 20.967 19.8434 21.4066V18.1099H18.5422V27.7802H19.8434V27.1209C20.2771 27.5604 20.7108 28 21.1446 28C21.5783 28 22.012 27.7802 22.2289 27.1209C22.2289 26.9011 22.4458 26.2418 22.4458 25.5824V22.7253C22.4458 22.0659 22.4458 21.6264 22.2289 21.1868C22.012 20.967 21.7952 20.5275 21.1446 20.5275ZM21.1446 25.8022C21.1446 26.4615 20.9277 26.6813 20.494 26.6813C20.2771 26.6813 20.0602 26.6813 19.8434 26.4615V22.0659C20.0602 21.8462 20.2771 21.8462 20.494 21.8462C20.9277 21.8462 21.1446 22.2857 21.1446 22.9451V25.8022ZM25.2651 20.5275C24.6145 20.5275 24.1807 20.7473 23.747 21.1868C23.5301 21.6264 23.3133 22.0659 23.3133 22.9451V25.5824C23.3133 26.4615 23.5301 26.9011 23.747 27.3407C24.1807 27.7802 24.6145 28 25.2651 28C25.9157 28 26.5663 27.7802 26.7831 27.1209C27 26.9011 27 26.6813 27 26.2418V25.1429H25.6988V26.022C25.6988 26.4615 25.4819 26.4615 25.0482 26.4615C24.6145 26.4615 24.3976 26.022 24.3976 25.3626V24.044H27V22.5055C27 21.6264 26.7831 21.1868 26.5663 20.7473C26.5663 20.967 25.9157 20.5275 25.2651 20.5275ZM25.9157 23.3846H24.6145V22.7253C24.6145 22.0659 24.8313 21.6264 25.2651 21.6264C25.6988 21.6264 25.9157 22.0659 25.9157 22.7253V23.3846Z" fill="#91FF36"/>
<path d="M0 0V35H36V0H0ZM20.925 6.78125H22.275V12.6875C22.275 12.9063 22.275 13.125 22.5 13.125C22.725 13.125 22.95 12.9062 23.4 12.4687V6.78125H24.75V14H23.4V13.3437C22.95 14 22.275 14.2188 21.825 14.2188C21.375 14.2188 21.15 14 20.925 13.7813C20.925 13.5625 20.7 13.125 20.7 12.6875V6.78125H20.925ZM15.75 9.1875C15.75 8.53125 15.75 7.875 16.2 7.4375C16.65 7 17.1 6.78125 17.775 6.78125C18.45 6.78125 18.9 7 19.35 7.4375C19.575 7.875 19.8 8.3125 19.8 9.1875V11.8125C19.8 12.6875 19.575 13.125 19.35 13.5625C18.9 14 18.45 14.2188 17.775 14.2188C17.1 14.2188 16.65 14 16.2 13.5625C15.75 13.125 15.75 12.6875 15.75 11.8125V9.1875ZM11.925 4.375L13.05 8.3125L14.175 4.375H15.75L13.95 10.2812V14.2188H12.375V10.2812C12.15 9.40625 11.925 8.53125 11.475 7C11.025 6.125 10.8 5.25 10.35 4.375H11.925ZM28.8 28.2187C28.575 29.3125 27.45 30.1875 26.325 30.4062C23.625 30.625 20.7 30.625 18 30.625C15.3 30.625 12.375 30.625 9.675 30.4062C8.55 30.1875 7.425 29.5312 7.2 28.2187C6.75 26.4687 6.75 24.7188 6.75 22.9688C6.75 21.4375 6.75 19.6875 7.2 17.9375C7.425 16.8437 8.55 15.9687 9.675 15.75C12.375 15.5312 15.3 15.5312 18 15.5312C20.7 15.5312 23.625 15.5312 26.325 15.75C27.45 15.9687 28.575 16.625 28.8 17.9375C29.25 19.6875 29.25 21.4375 29.25 22.9688C29.25 24.7188 29.25 26.4687 28.8 28.2187Z" fill="#91FF36"/>
</svg>
