<svg width="57" height="51" viewBox="0 0 57 51" fill="none" xmlns="http://www.w3.org/2000/svg">
<path d="M28.1438 19.027C28.8563 19.027 29.2126 18.3928 29.2126 17.4414V13.0016C29.2126 12.0503 28.8563 11.416 28.1438 11.416C27.4313 11.416 27.0751 12.0503 27.0751 13.0016V17.4414C27.0751 18.3928 27.4313 19.027 28.1438 19.027ZM25.2938 37.7374C24.9376 38.3717 24.2251 38.6888 23.8688 38.6888C23.5126 38.6888 23.5126 38.6888 23.5126 38.3717V29.8093H21.3751V38.0546C21.3751 38.6888 21.3751 39.3231 21.7313 39.6402C22.0876 40.2744 22.4438 40.2744 23.1563 40.2744C23.8688 40.2744 24.5813 39.9573 25.6501 39.0059V40.2744H27.7876V29.8093H25.2938V37.7374ZM13.5376 28.2237H16.0313V40.2744H18.5251V28.2237H21.0188V26.0038H13.5376V28.2237ZM33.4876 29.4922C32.7751 29.4922 32.0626 30.1264 31.3501 30.7607V26.0038H29.2126V39.9573H31.3501V39.0059C32.0626 39.6402 32.7751 40.2744 33.4876 40.2744C34.2001 40.2744 34.9126 39.9573 35.2688 39.0059C35.2688 38.6888 35.6251 37.7374 35.6251 36.7861V32.6634C35.6251 31.712 35.6251 31.0778 35.2688 30.4435C34.9126 30.1264 34.5563 29.4922 33.4876 29.4922ZM33.4876 37.1032C33.4876 38.0546 33.1313 38.3717 32.4188 38.3717C32.0626 38.3717 31.7063 38.3717 31.3501 38.0546V31.712C31.7063 31.3949 32.0626 31.3949 32.4188 31.3949C33.1313 31.3949 33.4876 32.0292 33.4876 32.9805V37.1032ZM40.2563 29.4922C39.1876 29.4922 38.4751 29.8093 37.7626 30.4435C37.4063 31.0778 37.0501 31.712 37.0501 32.9805V36.7861C37.0501 38.0546 37.4063 38.6888 37.7626 39.3231C38.4751 39.9573 39.1876 40.2744 40.2563 40.2744C41.3251 40.2744 42.3938 39.9573 42.7501 39.0059C43.1063 38.6888 43.1063 38.3717 43.1063 37.7374V36.1518H40.9688V37.4203C40.9688 38.0546 40.6126 38.0546 39.9001 38.0546C39.1876 38.0546 38.8313 37.4203 38.8313 36.4689V34.5662H43.1063V32.3463C43.1063 31.0778 42.7501 30.4435 42.3938 29.8093C42.3938 30.1264 41.3251 29.4922 40.2563 29.4922ZM41.3251 33.6148H39.1876V32.6634C39.1876 31.712 39.5438 31.0778 40.2563 31.0778C40.9688 31.0778 41.3251 31.712 41.3251 32.6634V33.6148Z" fill="#9AA6FE"/>
<path d="M0 0V50.7401H57V0H0ZM33.1313 9.83089H35.2687V18.3933C35.2687 18.7104 35.2687 19.0275 35.625 19.0275C35.9813 19.0275 36.3375 18.7104 37.05 18.0762V9.83089H39.1875V20.296H37.05V19.3447C36.3375 20.296 35.2687 20.6132 34.5562 20.6132C33.8437 20.6132 33.4875 20.296 33.1313 19.9789C33.1313 19.6618 32.775 19.0275 32.775 18.3933V9.83089H33.1313ZM24.9375 13.3193C24.9375 12.3679 24.9375 11.4165 25.65 10.7823C26.3625 10.148 27.075 9.83089 28.1438 9.83089C29.2125 9.83089 29.925 10.148 30.6375 10.7823C30.9938 11.4165 31.35 12.0508 31.35 13.3193V17.1248C31.35 18.3933 30.9938 19.0275 30.6375 19.6618C29.925 20.296 29.2125 20.6132 28.1438 20.6132C27.075 20.6132 26.3625 20.296 25.65 19.6618C24.9375 19.0275 24.9375 18.3933 24.9375 17.1248V13.3193ZM18.8813 6.34251L20.6625 12.0508L22.4438 6.34251H24.9375L22.0875 14.9049V20.6132H19.5938V14.9049C19.2375 13.6364 18.8812 12.3679 18.1687 10.148C17.4562 8.87951 17.1 7.61101 16.3875 6.34251H18.8813ZM45.6 40.9092C45.2438 42.4948 43.4625 43.7633 41.6812 44.0804C37.4062 44.3976 32.775 44.3976 28.5 44.3976C24.225 44.3976 19.5938 44.3976 15.3188 44.0804C13.5375 43.7633 11.7563 42.8119 11.4 40.9092C10.6875 38.3722 10.6875 35.8352 10.6875 33.2982C10.6875 31.0783 10.6875 28.5413 11.4 26.0043C11.7563 24.4187 13.5375 23.1502 15.3188 22.833C19.5938 22.5159 24.225 22.5159 28.5 22.5159C32.775 22.5159 37.4062 22.5159 41.6812 22.833C43.4625 23.1502 45.2438 24.1015 45.6 26.0043C46.3125 28.5413 46.3125 31.0783 46.3125 33.2982C46.3125 35.8352 46.3125 38.3722 45.6 40.9092Z" fill="#9AA6FE"/>
<path d="M28.1434 19.027C28.8559 19.027 29.2121 18.3928 29.2121 17.4414V13.0016C29.2121 12.0503 28.8559 11.416 28.1434 11.416C27.4309 11.416 27.0746 12.0503 27.0746 13.0016V17.4414C27.0746 18.3928 27.4309 19.027 28.1434 19.027ZM25.2934 37.7374C24.9371 38.3717 24.2246 38.6888 23.8684 38.6888C23.5121 38.6888 23.5121 38.6888 23.5121 38.3717V29.8093H21.3746V38.0546C21.3746 38.6888 21.3746 39.3231 21.7309 39.6402C22.0871 40.2744 22.4434 40.2744 23.1559 40.2744C23.8684 40.2744 24.5809 39.9573 25.6496 39.0059V40.2744H27.7871V29.8093H25.2934V37.7374ZM13.5371 28.2237H16.0309V40.2744H18.5246V28.2237H21.0184V26.0038H13.5371V28.2237ZM33.4871 29.4922C32.7746 29.4922 32.0621 30.1264 31.3496 30.7607V26.0038H29.2121V39.9573H31.3496V39.0059C32.0621 39.6402 32.7746 40.2744 33.4871 40.2744C34.1996 40.2744 34.9121 39.9573 35.2684 39.0059C35.2684 38.6888 35.6246 37.7374 35.6246 36.7861V32.6634C35.6246 31.712 35.6246 31.0778 35.2684 30.4435C34.9121 30.1264 34.5559 29.4922 33.4871 29.4922ZM33.4871 37.1032C33.4871 38.0546 33.1309 38.3717 32.4184 38.3717C32.0621 38.3717 31.7059 38.3717 31.3496 38.0546V31.712C31.7059 31.3949 32.0621 31.3949 32.4184 31.3949C33.1309 31.3949 33.4871 32.0292 33.4871 32.9805V37.1032ZM40.2559 29.4922C39.1871 29.4922 38.4746 29.8093 37.7621 30.4435C37.4059 31.0778 37.0496 31.712 37.0496 32.9805V36.7861C37.0496 38.0546 37.4059 38.6888 37.7621 39.3231C38.4746 39.9573 39.1871 40.2744 40.2559 40.2744C41.3246 40.2744 42.3934 39.9573 42.7496 39.0059C43.1059 38.6888 43.1059 38.3717 43.1059 37.7374V36.1518H40.9684V37.4203C40.9684 38.0546 40.6121 38.0546 39.8996 38.0546C39.1871 38.0546 38.8309 37.4203 38.8309 36.4689V34.5662H43.1059V32.3463C43.1059 31.0778 42.7496 30.4435 42.3934 29.8093C42.3934 30.1264 41.3246 29.4922 40.2559 29.4922ZM41.3246 33.6148H39.1871V32.6634C39.1871 31.712 39.5434 31.0778 40.2559 31.0778C40.9684 31.0778 41.3246 31.712 41.3246 32.6634V33.6148Z" fill="#9AA6FE"/>
<path d="M0 0V50.7401H57V0H0ZM33.1313 9.83089H35.2687V18.3933C35.2687 18.7104 35.2687 19.0275 35.625 19.0275C35.9813 19.0275 36.3375 18.7104 37.05 18.0762V9.83089H39.1875V20.296H37.05V19.3447C36.3375 20.296 35.2687 20.6132 34.5562 20.6132C33.8437 20.6132 33.4875 20.296 33.1313 19.9789C33.1313 19.6618 32.775 19.0275 32.775 18.3933V9.83089H33.1313ZM24.9375 13.3193C24.9375 12.3679 24.9375 11.4165 25.65 10.7823C26.3625 10.148 27.075 9.83089 28.1438 9.83089C29.2125 9.83089 29.925 10.148 30.6375 10.7823C30.9938 11.4165 31.35 12.0508 31.35 13.3193V17.1248C31.35 18.3933 30.9938 19.0275 30.6375 19.6618C29.925 20.296 29.2125 20.6132 28.1438 20.6132C27.075 20.6132 26.3625 20.296 25.65 19.6618C24.9375 19.0275 24.9375 18.3933 24.9375 17.1248V13.3193ZM18.8813 6.34251L20.6625 12.0508L22.4438 6.34251H24.9375L22.0875 14.9049V20.6132H19.5938V14.9049C19.2375 13.6364 18.8812 12.3679 18.1687 10.148C17.4562 8.87951 17.1 7.61101 16.3875 6.34251H18.8813ZM45.6 40.9092C45.2438 42.4948 43.4625 43.7633 41.6812 44.0804C37.4062 44.3976 32.775 44.3976 28.5 44.3976C24.225 44.3976 19.5938 44.3976 15.3188 44.0804C13.5375 43.7633 11.7563 42.8119 11.4 40.9092C10.6875 38.3722 10.6875 35.8352 10.6875 33.2982C10.6875 31.0783 10.6875 28.5413 11.4 26.0043C11.7563 24.4187 13.5375 23.1502 15.3188 22.833C19.5938 22.5159 24.225 22.5159 28.5 22.5159C32.775 22.5159 37.4062 22.5159 41.6812 22.833C43.4625 23.1502 45.2438 24.1015 45.6 26.0043C46.3125 28.5413 46.3125 31.0783 46.3125 33.2982C46.3125 35.8352 46.3125 38.3722 45.6 40.9092Z" fill="#9AA6FE"/>
</svg>
