<svg width="57" height="52" viewBox="0 0 57 52" fill="none" xmlns="http://www.w3.org/2000/svg">
<path d="M39.273 51.1854V31.549H46.6608L47.766 23.9154H39.273V19.0472C39.273 16.8372 39.9633 15.3291 43.5227 15.3291H48.0637V8.49889C45.8655 8.29019 43.656 8.1895 41.4453 8.19727C34.8998 8.19727 30.419 11.7547 30.419 18.2889V23.9154H23.0153V31.549H30.419V51.1854H3.16667C2.32681 51.1854 1.52136 50.8884 0.927495 50.3598C0.33363 49.8311 0 49.1141 0 48.3665V3.26421C0 2.51659 0.33363 1.79959 0.927495 1.27095C1.52136 0.742302 2.32681 0.445313 3.16667 0.445312H53.8333C54.6732 0.445313 55.4786 0.742302 56.0725 1.27095C56.6664 1.79959 57 2.51659 57 3.26421V48.3665C57 49.1141 56.6664 49.8311 56.0725 50.3598C55.4786 50.8884 54.6732 51.1854 53.8333 51.1854H39.273Z" fill="#9AA6FE"/>
</svg>
