<?xml version="1.0" encoding="UTF-8"?><svg id="Layer_1" xmlns="http://www.w3.org/2000/svg" width="1280" height="1024" viewBox="0 0 1280 1024"><defs><style>.cls-1{stroke-miterlimit:10;stroke-width:3px;}.cls-1,.cls-2,.cls-3,.cls-4,.cls-5,.cls-6,.cls-7,.cls-8,.cls-9,.cls-10,.cls-11,.cls-12,.cls-13,.cls-14,.cls-15,.cls-16,.cls-17,.cls-18,.cls-19,.cls-20,.cls-21,.cls-22,.cls-23,.cls-24,.cls-25,.cls-26,.cls-27,.cls-28,.cls-29,.cls-30,.cls-31,.cls-32,.cls-33{stroke:#fff;}.cls-1,.cls-2,.cls-34,.cls-35,.cls-8,.cls-36,.cls-37,.cls-9,.cls-10,.cls-13,.cls-15,.cls-38,.cls-23,.cls-39,.cls-28{fill:#fff;}.cls-2,.cls-9,.cls-21{stroke-linejoin:round;stroke-width:5px;}.cls-3{stroke-miterlimit:10;stroke-width:4px;}.cls-3,.cls-4,.cls-5,.cls-6,.cls-7,.cls-11,.cls-40,.cls-12,.cls-41,.cls-14,.cls-16,.cls-17,.cls-18,.cls-19,.cls-20,.cls-21,.cls-22,.cls-24,.cls-42,.cls-25,.cls-26,.cls-27,.cls-29,.cls-30,.cls-31,.cls-43,.cls-33{fill:none;}.cls-4{stroke-miterlimit:10;stroke-width:4px;}.cls-5{stroke-width:8px;}.cls-5,.cls-6,.cls-8,.cls-10,.cls-11,.cls-40,.cls-12,.cls-41,.cls-14,.cls-16,.cls-17,.cls-18,.cls-19,.cls-20,.cls-42,.cls-44,.cls-26,.cls-30,.cls-43{stroke-miterlimit:10;}.cls-34,.cls-6,.cls-35,.cls-36,.cls-37,.cls-11,.cls-40,.cls-41,.cls-14,.cls-45,.cls-38,.cls-46,.cls-18,.cls-20,.cls-47,.cls-48,.cls-39,.cls-42,.cls-26,.cls-49,.cls-30,.cls-43{isolation:isolate;}.cls-34,.cls-6,.cls-35,.cls-36,.cls-37,.cls-11,.cls-40,.cls-41,.cls-14,.cls-38,.cls-46,.cls-18,.cls-20,.cls-47,.cls-48,.cls-39,.cls-42,.cls-26,.cls-49,.cls-30,.cls-43{font-family:Consolas, Consolas;}.cls-34,.cls-6,.cls-35,.cls-14{font-size:38px;}.cls-34,.cls-14{letter-spacing:.05em;}.cls-6,.cls-35{letter-spacing:.07em;}.cls-6,.cls-14,.cls-30,.cls-43{stroke-width:2px;}.cls-7{stroke-miterlimit:10;stroke-width:4px;}.cls-36,.cls-11,.cls-41,.cls-18,.cls-48{font-size:17px;letter-spacing:.03em;}.cls-37,.cls-20{font-size:22px;letter-spacing:.03em;}.cls-9,.cls-21{stroke-linecap:round;}.cls-10,.cls-19{stroke-width:3px;}.cls-11{stroke-width:.75px;}.cls-40,.cls-41,.cls-42,.cls-43{stroke:#9aa6fe;}.cls-40,.cls-47{font-size:23px;letter-spacing:.03em;}.cls-12{stroke-width:14px;}.cls-13{stroke-miterlimit:10;stroke-width:1px;}.cls-50,.cls-46,.cls-47,.cls-48,.cls-49{fill:#9aa6fe;}.cls-15{stroke-width:3px;}.cls-15,.cls-32{stroke-miterlimit:10;}.cls-38,.cls-26{font-size:19px;letter-spacing:.05em;}.cls-16{stroke-width:4px;}.cls-17{stroke-width:6px;}.cls-46,.cls-42{font-size:18px;}.cls-22{stroke-miterlimit:10;stroke-width:4px;}.cls-23{stroke-miterlimit:10;stroke-width:4px;}.cls-24{stroke-miterlimit:10;stroke-width:4px;}.cls-39,.cls-30{font-size:37px;letter-spacing:.07em;}.cls-44{fill:#50724c;stroke:#314730;}.cls-25{stroke-miterlimit:10;stroke-width:4px;}.cls-27{stroke-miterlimit:10;stroke-width:4px;}.cls-49,.cls-43{font-size:34px;letter-spacing:.07em;}.cls-28{stroke-miterlimit:10;stroke-width:2px;}.cls-29{stroke-miterlimit:10;stroke-width:4px;}.cls-31{stroke-miterlimit:10;stroke-width:4px;}.cls-32{fill:#008555;stroke-width:1px;}.cls-51{fill:#354931;}.cls-33{stroke-miterlimit:10;stroke-width:4px;}</style></defs><g id="Layer_2"><polygon class="cls-44" points="585.95 132.92 500.87 87.21 465.83 142.57 422.9 120.22 315.67 298 268.81 286.38 237.38 381.81 300.43 407.14 38.27 827.27 96.17 897.37 1240.56 900.67 1242.08 482.38 1067.6 294.44 1099.35 268.54 828.87 52.41 676.24 70.19 585.95 132.92"/></g><g id="Layer_3"><path class="cls-50" d="M1219.1,900.54l-11.68-112-152.63-66.79-60.19-90.16,4.32-22.35,15.75-4.06,42.67,32.76,64.51-4.57,20.06-54.1-94.98-46.73-19.81,28.44-28.44,4.83-.76-36.32,63.24-74.67,102.86,64.51,41.14-64.51-154.41-125.21-23.37-31.24,36.57-32.76-235.94-197.84-146.54,16.76-48,42.92v32l-24.89,57.9-185.4-96.25-107.68,177.27-45.97-12.19-32.76,94.22,85.33,35.56,19.3-27.17,9.14,3.3-102.6,202.41-150.35,197.08,54.86,85.33,240.51,3.81,115.05-151.37-8.13-76.44,49.78,10.16,101.59-48.76,11.17-52.06,83.81,34.03,40.38-9.4,108.44,84.57,51.56,2.03,74.16,77.97,97.27,48-37.33,99.81,138.41,1.27h-.02ZM526.9,560.86l-17.9,41.9-62.86,8-73.52-25.14-50.67,39.62-35.05-29.33,99.05-182.48,118.48,42.67,71.24,51.05-48.76,53.71h-.01ZM572.62,438.57l-40.38-1.9-168.38-81.52,113.52-165.71,48.38,28.57-49.52,82.29,99.43,85.71-3.05,52.57h0ZM614.14,441.24v-69.33l34.36-38.48,63.55-17.9-7.24-43.43-73.14-38.86,23.62-59.81,198.48,107.05-115.05,164.19-124.57-3.43h0ZM765.38,549.81l-39.24,8.76-63.24-26.29-4.57-52.19,110.86-1.9-3.81,71.62h0ZM874.46,481.37l-102.1-26.92,44.7-60.44,57.4,30.48v56.89h0ZM884.87,484.16l4.06-65.27-65.52-32.51,128-178.03,42.92,36.06-72.89,61.46,50.03,35.81,27.17-18.79,22.35,21.33-52.32,56.38,42.92,31.75-57.9,68.57-68.83-16.76h.01Z"/></g><g id="Layer_5"><ellipse class="cls-51" cx="935.13" cy="795.33" rx="35.99" ry="32.49"/><ellipse class="cls-51" cx="946.74" cy="827.83" rx="21.72" ry="19.71"/><circle class="cls-51" cx="986.35" cy="778.53" r="20.95"/><ellipse class="cls-51" cx="1015.47" cy="833.28" rx="29.93" ry="26.41"/><ellipse class="cls-51" cx="995.05" cy="813.22" rx="34.91" ry="27.82"/><ellipse class="cls-51" cx="976.91" cy="847.67" rx="23.17" ry="24.52"/><ellipse class="cls-51" cx="803.14" cy="823.51" rx="28.03" ry="24.03"/><ellipse class="cls-51" cx="780.86" cy="843.75" rx="19.39" ry="15.93"/><ellipse class="cls-51" cx="825.01" cy="833.97" rx="21.87" ry="16.57"/><circle class="cls-51" cx="809.46" cy="856.89" r="18.22"/><ellipse class="cls-51" cx="806.12" cy="739.91" rx="21.57" ry="18.52"/><ellipse class="cls-51" cx="784.55" cy="670.79" rx="27.3" ry="20.35"/><ellipse class="cls-51" cx="760.76" cy="649.12" rx="17.11" ry="14.69"/><ellipse class="cls-51" cx="753.4" cy="597.29" rx="21.71" ry="17.61"/><ellipse class="cls-51" cx="670.88" cy="568.76" rx="18" ry="15.49"/><ellipse class="cls-51" cx="600.24" cy="661.5" rx="16.56" ry="14.88"/><circle class="cls-51" cx="643.46" cy="827.89" r="19.78"/><circle class="cls-51" cx="674.07" cy="816.73" r="17.24"/><ellipse class="cls-51" cx="676.94" cy="839.98" rx="17.83" ry="10.56"/><circle class="cls-51" cx="658.44" cy="853.68" r="18.5"/><ellipse class="cls-51" cx="549.64" cy="852.17" rx="34.05" ry="27.51"/><circle class="cls-51" cx="508.59" cy="849.88" r="20.45" transform="translate(-411.78 1215.77) rotate(-80.78)"/><circle class="cls-51" cx="450.24" cy="809.78" r="19.65"/><ellipse class="cls-51" cx="426.59" cy="801.4" rx="19.95" ry="16"/><ellipse class="cls-51" cx="342.25" cy="801.4" rx="20.29" ry="16"/><ellipse class="cls-51" cx="332.83" cy="818.15" rx="14.29" ry="11.28"/><ellipse class="cls-51" cx="171.4" cy="688.33" rx="16.29" ry="18.81"/><ellipse class="cls-51" cx="147.4" cy="702.84" rx="16.29" ry="11.7"/><ellipse class="cls-51" cx="239.71" cy="572.16" rx="27.39" ry="22.19"/><ellipse class="cls-51" cx="269.06" cy="552.79" rx="15.77" ry="16.6"/><ellipse class="cls-51" cx="294.54" cy="464.92" rx="14.1" ry="14.76"/><ellipse class="cls-51" cx="444.44" cy="466.92" rx="16" ry="16.76"/><ellipse class="cls-51" cx="426.35" cy="499.87" rx="31.62" ry="25.14"/><ellipse class="cls-51" cx="447.02" cy="535.87" rx="39.9" ry="33.52"/><ellipse class="cls-51" cx="400.44" cy="559.78" rx="32" ry="28.48"/><ellipse class="cls-51" cx="388.54" cy="523.97" rx="25.43" ry="22.76"/><ellipse class="cls-51" cx="451.97" cy="594.25" rx="22.38" ry="19.52"/><ellipse class="cls-51" cx="547.78" cy="431.68" rx="28.1" ry="23.81"/><ellipse class="cls-51" cx="527.3" cy="405.68" rx="19.24" ry="17.62"/><ellipse class="cls-51" cx="400.73" cy="345.27" rx="19.52" ry="15.49"/><ellipse class="cls-51" cx="462.24" cy="264.83" rx="29.56" ry="23.43"/><ellipse class="cls-51" cx="477.23" cy="236.63" rx="17.69" ry="16.19"/><ellipse class="cls-51" cx="541.11" cy="139.87" rx="29.24" ry="26.48"/><ellipse class="cls-51" cx="577.3" cy="155.21" rx="20.29" ry="18.57"/><ellipse class="cls-51" cx="626.92" cy="147.49" rx="17.71" ry="16.76"/><circle class="cls-51" cx="633.76" cy="124.23" r="13.69"/><ellipse class="cls-51" cx="685.24" cy="194.83" rx="29.74" ry="25.62"/><ellipse class="cls-51" cx="681.12" cy="224.96" rx="20.28" ry="15.49"/><ellipse class="cls-51" cx="781.21" cy="242.35" rx="26.29" ry="25.52"/><ellipse class="cls-51" cx="757.84" cy="250.35" rx="14.92" ry="13.52"/><ellipse class="cls-51" cx="838.25" cy="280.89" rx="19.71" ry="14.41"/><ellipse class="cls-51" cx="688.35" cy="348.94" rx="17.24" ry="14.36"/><ellipse class="cls-51" cx="671.23" cy="405.68" rx="17.65" ry="15.9"/><ellipse class="cls-51" cx="698.44" cy="433.63" rx="30.19" ry="27.95"/><ellipse class="cls-51" cx="668.83" cy="491.49" rx="22.48" ry="19.81"/><ellipse class="cls-51" cx="693.59" cy="496.92" rx="13.52" ry="14.38"/><ellipse class="cls-51" cx="725.3" cy="552.92" rx="21.24" ry="18"/><ellipse class="cls-51" cx="837.62" cy="432.44" rx="22.69" ry="21.52"/><ellipse class="cls-51" cx="808.6" cy="443.68" rx="17.37" ry="15.43"/><ellipse class="cls-51" cx="959.11" cy="442.54" rx="18.48" ry="14.29"/><ellipse class="cls-51" cx="1171.75" cy="548.47" rx="28.57" ry="23.88"/><ellipse class="cls-51" cx="1208.7" cy="567.52" rx="20.83" ry="19.05"/><circle class="cls-51" cx="1193.08" cy="591.49" r="25.78"/><ellipse class="cls-51" cx="1141.78" cy="703.49" rx="20.44" ry="16.89"/><ellipse class="cls-51" cx="1138.33" cy="730.94" rx="20.3" ry="17.89"/><ellipse class="cls-51" cx="1173.65" cy="723.81" rx="29.21" ry="25.02"/></g><g class="cls-45"><text class="cls-34" transform="translate(46.84 745.31) scale(.93 1)"><tspan x="0" y="0">MANEGEN</tspan></text><text class="cls-14" transform="translate(46.84 745.31) scale(.93 1)"><tspan x="0" y="0">MANEGEN</tspan></text></g><g class="cls-45"><text class="cls-39" transform="translate(495.15 306.47) scale(.85 1)"><tspan x="0" y="0">TRIBUNEN</tspan></text><text class="cls-30" transform="translate(495.15 306.47) scale(.85 1)"><tspan x="0" y="0">TRIBUNEN</tspan></text></g><g class="cls-45"><text class="cls-35" transform="translate(1008.32 661.43) scale(.85 1)"><tspan x="0" y="0">BALKONEN</tspan></text><text class="cls-6" transform="translate(1008.32 661.43) scale(.85 1)"><tspan x="0" y="0">BALKONEN</tspan></text></g><g class="cls-45"><text class="cls-35" transform="translate(1075.36 893.15) scale(.85 1)"><tspan x="0" y="0">ENTRANCE</tspan></text><text class="cls-6" transform="translate(1075.36 893.15) scale(.85 1)"><tspan x="0" y="0">ENTRANCE</tspan></text></g><rect class="cls-28" x="690.96" y="82.74" width="140.83" height="71.6" transform="translate(-8.43 84.8) rotate(-6.34)"/><g class="cls-45"><text class="cls-49" transform="translate(700.39 135.94) rotate(-6.34) scale(.85 1)"><tspan x="0" y="0">ARKADEN</tspan></text><text class="cls-43" transform="translate(700.39 135.94) rotate(-6.34) scale(.85 1)"><tspan x="0" y="0">ARKADEN</tspan></text></g><path class="cls-12" d="M163.67,864.86v-55.9s0-15.2-26.29-14.95-25.9,15.33-25.9,15.33v33.05"/><path class="cls-17" d="M212.32,804.43v-33.96s0-9.23-15.97-9.08-15.74,9.31-15.74,9.31v20.07"/><path class="cls-17" d="M243.03,769.42v-24.97s0-6.79-12.81-6.68-12.62,6.85-12.62,6.85v14.76"/><path class="cls-17" d="M272.11,745.31v-21.04s0-5.72-9.48-5.63c-9.39.09-9.34,5.77-9.34,5.77v12.44"/><g class="cls-45"><text class="cls-36" transform="translate(233.74 868.18)"><tspan x="0" y="0">AERIAL</tspan></text><text class="cls-11" transform="translate(233.74 868.18)"><tspan x="0" y="0">AERIAL</tspan></text><text class="cls-36" transform="translate(209.14 883.18)"><tspan x="0" y="0">PERFORMANCE</tspan></text><text class="cls-11" transform="translate(209.14 883.18)"><tspan x="0" y="0">PERFORMANCE</tspan></text></g><rect class="cls-22" x="364.72" y="824.76" width="49.09" height="32.57" transform="translate(-509.09 613.33) rotate(-50.94)"/><g class="cls-45"><text class="cls-36" transform="translate(385.04 855.58) rotate(-50.94)"><tspan x="0" y="0">BAR</tspan></text><text class="cls-18" transform="translate(385.04 855.58) rotate(-50.94)"><tspan x="0" y="0">BAR</tspan></text></g><g class="cls-45"><text class="cls-36" transform="translate(330.47 774.38)"><tspan x="0" y="0">SELF-SERVICE</tspan></text><text class="cls-18" transform="translate(330.47 774.38)"><tspan x="0" y="0">SELF-SERVICE</tspan></text><text class="cls-36" transform="translate(374.75 790.38)"><tspan x="0" y="0">BAR</tspan></text><text class="cls-18" transform="translate(374.75 790.38)"><tspan x="0" y="0">BAR</tspan></text></g><rect class="cls-16" x="365.28" y="732.23" width="48.04" height="20.57"/><rect class="cls-22" x="455.79" y="730.66" width="27.34" height="29.48" transform="translate(-405.15 640.23) rotate(-50.94)"/><g class="cls-45"><text class="cls-36" transform="translate(515.98 702.14)"><tspan x="0" y="0">PHOTO</tspan></text><text class="cls-18" transform="translate(515.98 702.14)"><tspan x="0" y="0">PHOTO</tspan></text><text class="cls-36" transform="translate(515.98 718.14)"><tspan x="0" y="0">BOOTH</tspan></text><text class="cls-18" transform="translate(515.98 718.14)"><tspan x="0" y="0">BOOTH</tspan></text></g><g class="cls-45"><text class="cls-36" transform="translate(491.01 764.87)"><tspan x="0" y="0">A VERRE </tspan></text><text class="cls-18" transform="translate(491.01 764.87)"><tspan x="0" y="0">A VERRE </tspan></text><text class="cls-36" transform="translate(491.01 780.87)"><tspan x="0" y="0">COCKTAIL BAR</tspan></text><text class="cls-18" transform="translate(491.01 780.87)"><tspan x="0" y="0">COCKTAIL BAR</tspan></text></g><g class="cls-45"><text class="cls-36" transform="translate(647.25 727.94)"><tspan x="0" y="0">DREAM ZONE</tspan></text><text class="cls-18" transform="translate(647.25 727.94)"><tspan x="0" y="0">DREAM ZONE</tspan></text></g><g class="cls-45"><text class="cls-36" transform="translate(635.32 634.44)"><tspan x="0" y="0">ROKITA’S</tspan></text><text class="cls-18" transform="translate(635.32 634.44)"><tspan x="0" y="0">ROKITA’S</tspan></text><text class="cls-36" transform="translate(635.32 650.44)"><tspan x="0" y="0">EMPANADA</tspan></text><text class="cls-18" transform="translate(635.32 650.44)"><tspan x="0" y="0">EMPANADA</tspan></text></g><rect class="cls-33" x="616.1" y="604.67" width="25.76" height="13.37" transform="translate(-211.53 360.53) rotate(-27.57)"/><g class="cls-45"><text class="cls-36" transform="translate(515.22 630.9)"><tspan x="0" y="0">WATER</tspan></text><text class="cls-18" transform="translate(515.22 630.9)"><tspan x="0" y="0">WATER</tspan></text></g><rect class="cls-16" x="560.07" y="536.18" width="43.09" height="16.48"/><g class="cls-45"><text class="cls-36" transform="translate(521.82 510.14)"><tspan x="0" y="0">REBEL</tspan></text><text class="cls-18" transform="translate(521.82 510.14)"><tspan x="0" y="0">REBEL</tspan></text><text class="cls-36" transform="translate(487.38 526.14)"><tspan x="0" y="0">COCKTAIL BAR</tspan></text><text class="cls-18" transform="translate(487.38 526.14)"><tspan x="0" y="0">COCKTAIL BAR</tspan></text></g><path class="cls-16" d="M539.03,573.24l-11.81,20.7s-5,17.85,11.81,17.9,10.67-19.3,10.67-19.3l-10.67-19.3h0Z"/><ellipse class="cls-8" cx="381.45" cy="655.87" rx="54.1" ry="54.76"/><g class="cls-45"><text class="cls-47" transform="translate(329.94 661.49)"><tspan x="0" y="0">CAROUSEL</tspan></text><text class="cls-40" transform="translate(329.94 661.49)"><tspan x="0" y="0">CAROUSEL</tspan></text></g><rect class="cls-3" x="211.5" y="625.03" width="60.86" height="28.5" transform="translate(-419.07 465.24) rotate(-54.52)"/><g class="cls-45"><text class="cls-38" transform="translate(237.71 654.6) rotate(-51.63) scale(.93 1)"><tspan x="0" y="0">BAR</tspan></text><text class="cls-26" transform="translate(237.71 654.6) rotate(-51.63) scale(.93 1)"><tspan x="0" y="0">BAR</tspan></text></g><rect class="cls-23" x="345.3" y="201.57" width="122.67" height="28.5" transform="translate(12.58 453.84) rotate(-59.09)"/><g class="cls-45"><text class="cls-46" transform="translate(394.64 243.87) rotate(-57.84)"><tspan x="0" y="0">TOILETS</tspan></text><text class="cls-42" transform="translate(394.64 243.87) rotate(-57.84)"><tspan x="0" y="0">TOILETS</tspan></text></g><rect class="cls-27" x="561.36" y="203.95" width="28.02" height="45.22" transform="translate(91.48 611.56) rotate(-60)"/><rect class="cls-24" x="679.13" y="277.1" width="19.51" height="36.35" transform="translate(-28.39 77.88) rotate(-6.34)"/><g class="cls-45"><text class="cls-36" transform="translate(560.43 223.43) rotate(30.91)"><tspan x="0" y="0">BAR</tspan></text><text class="cls-18" transform="translate(560.43 223.43) rotate(30.91)"><tspan x="0" y="0">BAR</tspan></text></g><g class="cls-45"><text class="cls-36" transform="translate(442.4 348.91)"><tspan x="0" y="0">CAGE</tspan></text><text class="cls-18" transform="translate(442.4 348.91)"><tspan x="0" y="0">CAGE</tspan></text></g><rect class="cls-8" x="428.49" y="345.17" width="4.19" height="4.19"/><rect class="cls-8" x="467.79" y="323.68" width="4.19" height="4.19"/><rect class="cls-8" x="455.35" y="323.68" width="4.19" height="4.19"/><rect class="cls-8" x="443.16" y="323.3" width="4.19" height="4.19"/><rect class="cls-8" x="430.78" y="323.3" width="4.19" height="4.19"/><rect class="cls-8" x="428.68" y="333.21" width="4.19" height="4.19"/><rect class="cls-8" x="491.79" y="335.81" width="4.19" height="4.19"/><rect class="cls-8" x="491.79" y="323.68" width="4.19" height="4.19"/><rect class="cls-8" x="480.11" y="323.3" width="4.19" height="4.19"/><rect class="cls-8" x="491.79" y="346.41" width="4.19" height="4.19"/><g class="cls-45"><text class="cls-36" transform="translate(163.09 317.06)"><tspan x="0" y="0">FIRST AID</tspan></text><text class="cls-18" transform="translate(163.09 317.06)"><tspan x="0" y="0">FIRST AID</tspan></text></g><g class="cls-45"><text class="cls-36" transform="translate(147.12 361.37)"><tspan x="0" y="0">AWARENESS</tspan></text><text class="cls-18" transform="translate(147.12 361.37)"><tspan x="0" y="0">AWARENESS</tspan></text></g><g class="cls-45"><text class="cls-36" transform="translate(714.22 291.23)"><tspan x="0" y="0">MATÉ &amp;</tspan></text><text class="cls-18" transform="translate(714.22 291.23)"><tspan x="0" y="0">MATÉ &amp;</tspan></text><text class="cls-36" transform="translate(714.22 306.23)"><tspan x="0" y="0">COCKTAIL BAR</tspan></text><text class="cls-18" transform="translate(714.22 306.23)"><tspan x="0" y="0">COCKTAIL BAR</tspan></text></g><g class="cls-45"><text class="cls-36" transform="translate(713.84 515.14)"><tspan x="0" y="0">CRAFT</tspan></text><text class="cls-18" transform="translate(713.84 515.14)"><tspan x="0" y="0">CRAFT</tspan></text><text class="cls-36" transform="translate(713.84 530.14)"><tspan x="0" y="0">BEERS</tspan></text><text class="cls-18" transform="translate(713.84 530.14)"><tspan x="0" y="0">BEERS</tspan></text></g><g class="cls-45"><text class="cls-36" transform="translate(781.61 418.79)"><tspan x="0" y="0">HAKKERTDUKKERT</tspan></text><text class="cls-18" transform="translate(781.61 418.79)"><tspan x="0" y="0">HAKKERTDUKKERT</tspan></text><text class="cls-36" transform="translate(811.13 433.79)"><tspan x="0" y="0">TEAHOUSE</tspan></text><text class="cls-18" transform="translate(811.13 433.79)"><tspan x="0" y="0">TEAHOUSE</tspan></text></g><g class="cls-45"><text class="cls-36" transform="translate(818.03 244.81)"><tspan x="0" y="0">PHOTO </tspan></text><text class="cls-18" transform="translate(818.03 244.81)"><tspan x="0" y="0">PHOTO </tspan></text><text class="cls-36" transform="translate(818.03 259.81)"><tspan x="0" y="0">BOOTH</tspan></text><text class="cls-18" transform="translate(818.03 259.81)"><tspan x="0" y="0">BOOTH</tspan></text></g><g class="cls-45"><text class="cls-36" transform="translate(909.82 188.13)"><tspan x="0" y="0">RED BULL</tspan></text><text class="cls-18" transform="translate(909.82 188.13)"><tspan x="0" y="0">RED BULL</tspan></text><text class="cls-36" transform="translate(909.82 203.13)"><tspan x="0" y="0">BAR</tspan></text><text class="cls-18" transform="translate(909.82 203.13)"><tspan x="0" y="0">BAR</tspan></text></g><g class="cls-45"><text class="cls-36" transform="translate(912.93 277.46)"><tspan x="0" y="0">THE WITCH</tspan></text><text class="cls-18" transform="translate(912.93 277.46)"><tspan x="0" y="0">THE WITCH</tspan></text></g><g class="cls-45"><text class="cls-36" transform="translate(899.02 319.43)"><tspan x="0" y="0">MAKEUP</tspan></text><text class="cls-18" transform="translate(899.02 319.43)"><tspan x="0" y="0">MAKEUP</tspan></text><text class="cls-36" transform="translate(899.02 334.43)"><tspan x="0" y="0">SALON</tspan></text><text class="cls-18" transform="translate(899.02 334.43)"><tspan x="0" y="0">SALON</tspan></text></g><g class="cls-45"><text class="cls-36" transform="translate(991.67 415.63)"><tspan x="0" y="0">BONFIRE</tspan></text><text class="cls-18" transform="translate(991.67 415.63)"><tspan x="0" y="0">BONFIRE</tspan></text></g><g class="cls-45"><text class="cls-36" transform="translate(1015.13 520.44)"><tspan x="0" y="0">JÄGERMEISTER</tspan></text><text class="cls-18" transform="translate(1015.13 520.44)"><tspan x="0" y="0">JÄGERMEISTER</tspan></text><text class="cls-36" transform="translate(1059.41 535.44)"><tspan x="0" y="0">BAR</tspan></text><text class="cls-18" transform="translate(1059.41 535.44)"><tspan x="0" y="0">BAR</tspan></text></g><g class="cls-45"><text class="cls-36" transform="translate(855.34 714.99)"><tspan x="0" y="0">INFO &amp; MERCH</tspan></text><text class="cls-18" transform="translate(855.34 714.99)"><tspan x="0" y="0">INFO &amp; MERCH</tspan></text></g><g class="cls-45"><text class="cls-36" transform="translate(929.53 742.63)"><tspan x="0" y="0">LOCKERS</tspan></text><text class="cls-18" transform="translate(929.53 742.63)"><tspan x="0" y="0">LOCKERS</tspan></text></g><rect class="cls-29" x="808.26" y="577.31" width="13.37" height="25.76" transform="translate(-150.69 873.07) rotate(-52.24)"/><rect class="cls-29" x="840.21" y="602.06" width="13.37" height="25.76" transform="translate(-157.87 907.92) rotate(-52.24)"/><rect class="cls-29" x="875.81" y="627.86" width="13.37" height="25.76" transform="translate(-164.46 946.07) rotate(-52.24)"/><rect class="cls-16" x="909.37" y="650.43" width="25.76" height="13.37"/><rect class="cls-31" x="984.76" y="688.26" width="13.37" height="25.76" transform="translate(-211.86 864.32) rotate(-42.99)"/><rect class="cls-31" x="1011.19" y="716.6" width="13.37" height="25.76" transform="translate(-224.09 889.94) rotate(-42.99)"/><rect class="cls-16" x="777.87" y="506.26" width="13.37" height="25.76"/><rect class="cls-7" x="899.61" y="487.7" width="25.76" height="55.57" transform="translate(197.42 1281.67) rotate(-76.44)"/><rect class="cls-25" x="1037.71" y="551.02" width="25.76" height="13.37" transform="translate(42.31 1188.69) rotate(-60)"/><g class="cls-45"><text class="cls-37" transform="translate(881.92 586.58)"><tspan x="0" y="0">FOOD</tspan></text><text class="cls-20" transform="translate(881.92 586.58)"><tspan x="0" y="0">FOOD</tspan></text><text class="cls-37" transform="translate(875.53 608.58)"><tspan x="0" y="0">COURT</tspan></text><text class="cls-20" transform="translate(875.53 608.58)"><tspan x="0" y="0">COURT</tspan></text></g><g class="cls-45"><text class="cls-36" transform="translate(898.41 518.69) rotate(13.56)"><tspan x="0" y="0">BAR</tspan></text><text class="cls-18" transform="translate(898.41 518.69) rotate(13.56)"><tspan x="0" y="0">BAR</tspan></text></g><rect class="cls-13" x="1113.71" y="401.74" width="26.29" height="91.65" transform="translate(145.91 1160.21) rotate(-57.66)"/><g class="cls-45"><text class="cls-48" transform="translate(1092.74 434.64) rotate(30)"><tspan x="0" y="0">TOILETS</tspan></text><text class="cls-41" transform="translate(1092.74 434.64) rotate(30)"><tspan x="0" y="0">TOILETS</tspan></text></g><path class="cls-2" d="M1089.76,560.44s1.02,24.51-32.63,31.62c0,0,10.41,15.62,0,34.03,0,0,20.83-17.27,53.84,2.54,0,0-7.16-25.14,21.12-39.87,0,0-26.33-.38-42.33-28.32h0Z"/><path class="cls-9" d="M535.13,311.14s10.67,52.83,65.65,34.03c0,0-43.94,28.83-29.59,67.81,0,0-28.89-62.35-79.4-39.75,0,0,39.52-14.86,43.33-62.1h.01Z"/><path class="cls-21" d="M939.25,252.19h34.76s-16-34.57-34.76,0Z"/><rect class="cls-4" x="846.03" y="363.89" width="23.7" height="30.82" transform="translate(89.6 917.42) rotate(-58.86)"/><line class="cls-5" x1="1127.48" y1="857.52" x2="1127.73" y2="821.21"/><line class="cls-5" x1="1123.68" y1="823.05" x2="1186.16" y2="823.25"/><line class="cls-5" x1="1181.95" y1="823.24" x2="1182.08" y2="857.27"/><circle class="cls-19" cx="269.11" cy="364.11" r="18"/><ellipse class="cls-10" cx="269.63" cy="364.05" rx="9.67" ry="3.29"/><rect class="cls-32" x="266.76" y="301.75" width="39.41" height="38.71" transform="translate(-105.67 498.3) rotate(-72.58)"/><rect class="cls-15" x="272.04" y="317.2" width="28.86" height="7.81" transform="translate(-105.67 498.3) rotate(-72.58)"/><rect class="cls-1" x="282.56" y="306.68" width="7.81" height="28.86" transform="translate(-105.67 498.31) rotate(-72.58)"/><rect class="cls-22" x="859.56" y="135.07" width="45.78" height="44.89" transform="translate(204.08 743.47) rotate(-50.94)"/></svg>